Coordinates
version=1
nRows=21
nColumns=12
inDegrees=yes

Units are S.I. units (second, meters, Newtons, ...)
Angles are in degrees

endheader
time	SC_y	SC_z	SC_x	AC_y	AC_z	AC_x	GH_y	GH_z	GH_yy	EL_x	PS_y
       0.0              -44.66          32.42          1.411          57.74          -11.2          13.87          95.24          87.66          74.48          86.82          101.1
   0.03964              -44.66          32.42          1.418          57.74          -11.2          13.87          95.25          87.65          74.47          86.81          101.1
   0.07929              -44.65          32.42          1.426          57.74          -11.2          13.87          95.26          87.64          74.46           86.8          101.1
    0.1189              -44.65          32.42          1.434          57.73         -11.21          13.87          95.27          87.63          74.45          86.79          101.1
    0.1586              -44.64          32.41          1.442          57.73         -11.21          13.86          95.28          87.61          74.44          86.78          101.1
    0.1982              -44.63          32.41          1.451          57.73         -11.21          13.86          95.29           87.6          74.43          86.77          101.1
    0.2379              -44.63          32.41           1.46          57.72         -11.21          13.86           95.3          87.58          74.41          86.76          101.1
    0.2775              -44.62          32.41          1.471          57.72         -11.21          13.85          95.31          87.57           74.4          86.75          101.1
    0.3171              -44.61          32.41          1.481          57.72         -11.21          13.85          95.32          87.55          74.39          86.74          101.1
    0.3568              -44.61          32.41          1.493          57.71         -11.21          13.85          95.33          87.53          74.37          86.73          101.1
    0.3964               -44.6           32.4          1.506          57.71         -11.21          13.84          95.35          87.51          74.36          86.71          101.1
    0.4361              -44.59           32.4          1.519           57.7         -11.21          13.84          95.36          87.49          74.34           86.7          101.1
    0.4757              -44.58           32.4          1.534           57.7         -11.21          13.83          95.38          87.47          74.32          86.68          101.1
    0.5154              -44.57           32.4           1.55          57.69         -11.21          13.83          95.39          87.44           74.3          86.66          101.1
     0.555              -44.56          32.39          1.567          57.68         -11.21          13.82          95.41          87.42          74.28          86.64          101.1
    0.5947              -44.54          32.39          1.585          57.68         -11.21          13.82          95.43          87.39          74.25          86.62          101.1
    0.6343              -44.53          32.39          1.605          57.67         -11.21          13.81          95.45          87.35          74.23           86.6          101.1
    0.6739              -44.52          32.38          1.627          57.66         -11.21           13.8          95.48          87.32           74.2          86.58          101.1
    0.7136               -44.5          32.38          1.651          57.65         -11.21          13.79           95.5          87.28          74.17          86.55          101.0
    0.7532              -44.48          32.37          1.677          57.64         -11.22          13.79          95.53          87.24          74.14          86.52          101.0
    0.7929              -44.46          32.37          1.706          57.63         -11.22          13.78          95.56          87.19           74.1          86.49          101.0
